<svg width="67px" height="67px" viewBox="0 0 67 67" version="1.1" xmlns="http://www.w3.org/2000/svg" xmlns:xlink="http://www.w3.org/1999/xlink">
    <defs></defs>
        <g id="layer1">
            <path style="fill: rgb(0,0,255)" data-channels="0" d="M60.0085563,55 L58.9776059,55.1067806 L57.9876702,55.4338107 L57.0116607,55.9870749 L55.9982209,57.0143978 L55.4031548,57.9910879 L55.0897858,58.9812137 L55,60.0118221 L55.0897858,60.9615238 L55.4031548,61.9944791 L55.9982209,62.9385484 L57.0116607,64.0026578 L57.9876702,64.547356 L58.9776059,64.9041908 L60.0085563,65 L60.9962003,64.9041908 L61.9954789,64.547356 L62.9929947,64.0026578 L64.025943,62.9385484 L64.5571366,61.9944791 L64.8679788,60.9615238 L65.0044791,60.0118221 L64.8679788,58.9812137 L64.5571366,57.9910879 L64.025943,57.0143978 C63.6345114,56.5608676 63.2901953,56.2184267 62.9929947,55.9870749 C62.6957941,55.7557231 62.3632888,55.5713017 61.9954789,55.4338107 L60.9962003,55.1067806 L60.0085563,55 Z" id="electrode55"></path>
            <path style="fill: rgb(0,0,255)" data-channels="1" d="M49.0085563,55 L47.9776059,55.1067806 L46.9876702,55.4338107 L46.0116607,55.9870749 L44.9982209,57.0143978 L44.4031548,57.9910879 L44.0897858,58.9812137 L44,60.0118221 L44.0897858,60.9615238 L44.4031548,61.9944791 L44.9982209,62.9385484 L46.0116607,64.0026578 L46.9876702,64.547356 L47.9776059,64.9041908 L49.0085563,65 L49.9962003,64.9041908 L50.9954789,64.547356 L51.9929947,64.0026578 L53.025943,62.9385484 L53.5571366,61.9944791 L53.8679788,60.9615238 L54.0044791,60.0118221 L53.8679788,58.9812137 L53.5571366,57.9910879 L53.025943,57.0143978 C52.6345114,56.5608676 52.2901953,56.2184267 51.9929947,55.9870749 C51.6957941,55.7557231 51.3632888,55.5713017 50.9954789,55.4338107 L49.9962003,55.1067806 L49.0085563,55 Z" id="electrode54"></path>
            <path style="fill: rgb(0,0,255)" data-channels="2" d="M38.0085563,55 L36.9776059,55.1067806 L35.9876702,55.4338107 L35.0116607,55.9870749 L33.9982209,57.0143978 L33.4031548,57.9910879 L33.0897858,58.9812137 L33,60.0118221 L33.0897858,60.9615238 L33.4031548,61.9944791 L33.9982209,62.9385484 L35.0116607,64.0026578 L35.9876702,64.547356 L36.9776059,64.9041908 L38.0085563,65 L38.9962003,64.9041908 L39.9954789,64.547356 L40.9929947,64.0026578 L42.025943,62.9385484 L42.5571366,61.9944791 L42.8679788,60.9615238 L43.0044791,60.0118221 L42.8679788,58.9812137 L42.5571366,57.9910879 L42.025943,57.0143978 C41.6345114,56.5608676 41.2901953,56.2184267 40.9929947,55.9870749 C40.6957941,55.7557231 40.3632888,55.5713017 39.9954789,55.4338107 L38.9962003,55.1067806 L38.0085563,55 Z" id="electrode53"></path>
            <path style="fill: rgb(0,0,255)" data-channels="3" d="M27.0085563,55 L25.9776059,55.1067806 L24.9876702,55.4338107 L24.0116607,55.9870749 L22.9982209,57.0143978 L22.4031548,57.9910879 L22.0897858,58.9812137 L22,60.0118221 L22.0897858,60.9615238 L22.4031548,61.9944791 L22.9982209,62.9385484 L24.0116607,64.0026578 L24.9876702,64.547356 L25.9776059,64.9041908 L27.0085563,65 L27.9962003,64.9041908 L28.9954789,64.547356 L29.9929947,64.0026578 L31.025943,62.9385484 L31.5571366,61.9944791 L31.8679788,60.9615238 L32.0044791,60.0118221 L31.8679788,58.9812137 L31.5571366,57.9910879 L31.025943,57.0143978 C30.6345114,56.5608676 30.2901953,56.2184267 29.9929947,55.9870749 C29.6957941,55.7557231 29.3632888,55.5713017 28.9954789,55.4338107 L27.9962003,55.1067806 L27.0085563,55 Z" id="electrode52"></path>
            <path style="fill: rgb(0,0,255)" data-channels="4" d="M16.0085563,55 L14.9776059,55.1067806 L13.9876702,55.4338107 L13.0116607,55.9870749 L11.9982209,57.0143978 L11.4031548,57.9910879 L11.0897858,58.9812137 L11,60.0118221 L11.0897858,60.9615238 L11.4031548,61.9944791 L11.9982209,62.9385484 L13.0116607,64.0026578 L13.9876702,64.547356 L14.9776059,64.9041908 L16.0085563,65 L16.9962003,64.9041908 L17.9954789,64.547356 L18.9929947,64.0026578 L20.025943,62.9385484 L20.5571366,61.9944791 L20.8679788,60.9615238 L21.0044791,60.0118221 L20.8679788,58.9812137 L20.5571366,57.9910879 L20.025943,57.0143978 C19.6345114,56.5608676 19.2901953,56.2184267 18.9929947,55.9870749 C18.6957941,55.7557231 18.3632888,55.5713017 17.9954789,55.4338107 L16.9962003,55.1067806 L16.0085563,55 Z" id="electrode51"></path>
            <path style="fill: rgb(0,0,255)" data-channels="5" d="M5.00855631,55 L3.9776059,55.1067806 L2.98767021,55.4338107 L2.01166073,55.9870749 L0.998220897,57.0143978 L0.40315479,57.9910879 L0.0897858212,58.9812137 L0,60.0118221 L0.0897858212,60.9615238 L0.40315479,61.9944791 L0.998220897,62.9385484 L2.01166073,64.0026578 L2.98767021,64.547356 L3.9776059,64.9041908 L5.00855631,65 L5.99620034,64.9041908 L6.99547893,64.547356 L7.9929947,64.0026578 L9.02594297,62.9385484 L9.55713657,61.9944791 L9.86797884,60.9615238 L10.0044791,60.0118221 L9.86797884,58.9812137 L9.55713657,57.9910879 L9.02594297,57.0143978 C8.63451143,56.5608676 8.29019535,56.2184267 7.9929947,55.9870749 C7.69579405,55.7557231 7.3632888,55.5713017 6.99547893,55.4338107 L5.99620034,55.1067806 L5.00855631,55 Z" id="electrode50"></path>
            <path style="fill: rgb(0,0,255)" data-channels="6" d="M60.0085563,44 L58.9776059,44.1067806 L57.9876702,44.4338107 L57.0116607,44.9870749 L55.9982209,46.0143978 L55.4031548,46.9910879 L55.0897858,47.9812137 L55,49.0118221 L55.0897858,49.9615238 L55.4031548,50.9944791 L55.9982209,51.9385484 L57.0116607,53.0026578 L57.9876702,53.547356 L58.9776059,53.9041908 L60.0085563,54 L60.9962003,53.9041908 L61.9954789,53.547356 L62.9929947,53.0026578 L64.025943,51.9385484 L64.5571366,50.9944791 L64.8679788,49.9615238 L65.0044791,49.0118221 L64.8679788,47.9812137 L64.5571366,46.9910879 L64.025943,46.0143978 C63.6345114,45.5608676 63.2901953,45.2184267 62.9929947,44.9870749 C62.6957941,44.7557231 62.3632888,44.5713017 61.9954789,44.4338107 L60.9962003,44.1067806 L60.0085563,44 Z" id="electrode45"></path>
            <path style="fill: rgb(0,0,255)" data-channels="7" d="M49.0085563,44 L47.9776059,44.1067806 L46.9876702,44.4338107 L46.0116607,44.9870749 L44.9982209,46.0143978 L44.4031548,46.9910879 L44.0897858,47.9812137 L44,49.0118221 L44.0897858,49.9615238 L44.4031548,50.9944791 L44.9982209,51.9385484 L46.0116607,53.0026578 L46.9876702,53.547356 L47.9776059,53.9041908 L49.0085563,54 L49.9962003,53.9041908 L50.9954789,53.547356 L51.9929947,53.0026578 L53.025943,51.9385484 L53.5571366,50.9944791 L53.8679788,49.9615238 L54.0044791,49.0118221 L53.8679788,47.9812137 L53.5571366,46.9910879 L53.025943,46.0143978 C52.6345114,45.5608676 52.2901953,45.2184267 51.9929947,44.9870749 C51.6957941,44.7557231 51.3632888,44.5713017 50.9954789,44.4338107 L49.9962003,44.1067806 L49.0085563,44 Z" id="electrode44"></path>
            <path style="fill: rgb(0,0,255)" data-channels="8" d="M38.0085563,44 L36.9776059,44.1067806 L35.9876702,44.4338107 L35.0116607,44.9870749 L33.9982209,46.0143978 L33.4031548,46.9910879 L33.0897858,47.9812137 L33,49.0118221 L33.0897858,49.9615238 L33.4031548,50.9944791 L33.9982209,51.9385484 L35.0116607,53.0026578 L35.9876702,53.547356 L36.9776059,53.9041908 L38.0085563,54 L38.9962003,53.9041908 L39.9954789,53.547356 L40.9929947,53.0026578 L42.025943,51.9385484 L42.5571366,50.9944791 L42.8679788,49.9615238 L43.0044791,49.0118221 L42.8679788,47.9812137 L42.5571366,46.9910879 L42.025943,46.0143978 C41.6345114,45.5608676 41.2901953,45.2184267 40.9929947,44.9870749 C40.6957941,44.7557231 40.3632888,44.5713017 39.9954789,44.4338107 L38.9962003,44.1067806 L38.0085563,44 Z" id="electrode43"></path>
            <path style="fill: rgb(0,0,255)" data-channels="9" d="M27.0085563,44 L25.9776059,44.1067806 L24.9876702,44.4338107 L24.0116607,44.9870749 L22.9982209,46.0143978 L22.4031548,46.9910879 L22.0897858,47.9812137 L22,49.0118221 L22.0897858,49.9615238 L22.4031548,50.9944791 L22.9982209,51.9385484 L24.0116607,53.0026578 L24.9876702,53.547356 L25.9776059,53.9041908 L27.0085563,54 L27.9962003,53.9041908 L28.9954789,53.547356 L29.9929947,53.0026578 L31.025943,51.9385484 L31.5571366,50.9944791 L31.8679788,49.9615238 L32.0044791,49.0118221 L31.8679788,47.9812137 L31.5571366,46.9910879 L31.025943,46.0143978 C30.6345114,45.5608676 30.2901953,45.2184267 29.9929947,44.9870749 C29.6957941,44.7557231 29.3632888,44.5713017 28.9954789,44.4338107 L27.9962003,44.1067806 L27.0085563,44 Z" id="electrode42"></path>
            <path style="fill: rgb(0,0,255)" data-channels="10" d="M16.0085563,44 L14.9776059,44.1067806 L13.9876702,44.4338107 L13.0116607,44.9870749 L11.9982209,46.0143978 L11.4031548,46.9910879 L11.0897858,47.9812137 L11,49.0118221 L11.0897858,49.9615238 L11.4031548,50.9944791 L11.9982209,51.9385484 L13.0116607,53.0026578 L13.9876702,53.547356 L14.9776059,53.9041908 L16.0085563,54 L16.9962003,53.9041908 L17.9954789,53.547356 L18.9929947,53.0026578 L20.025943,51.9385484 L20.5571366,50.9944791 L20.8679788,49.9615238 L21.0044791,49.0118221 L20.8679788,47.9812137 L20.5571366,46.9910879 L20.025943,46.0143978 C19.6345114,45.5608676 19.2901953,45.2184267 18.9929947,44.9870749 C18.6957941,44.7557231 18.3632888,44.5713017 17.9954789,44.4338107 L16.9962003,44.1067806 L16.0085563,44 Z" id="electrode41"></path>
            <path style="fill: rgb(0,0,255)" data-channels="11" d="M5.00855631,44 L3.9776059,44.1067806 L2.98767021,44.4338107 L2.01166073,44.9870749 L0.998220897,46.0143978 L0.40315479,46.9910879 L0.0897858212,47.9812137 L0,49.0118221 L0.0897858212,49.9615238 L0.40315479,50.9944791 L0.998220897,51.9385484 L2.01166073,53.0026578 L2.98767021,53.547356 L3.9776059,53.9041908 L5.00855631,54 L5.99620034,53.9041908 L6.99547893,53.547356 L7.9929947,53.0026578 L9.02594297,51.9385484 L9.55713657,50.9944791 L9.86797884,49.9615238 L10.0044791,49.0118221 L9.86797884,47.9812137 L9.55713657,46.9910879 L9.02594297,46.0143978 C8.63451143,45.5608676 8.29019535,45.2184267 7.9929947,44.9870749 C7.69579405,44.7557231 7.3632888,44.5713017 6.99547893,44.4338107 L5.99620034,44.1067806 L5.00855631,44 Z" id="electrode40"></path>
            <path style="fill: rgb(0,0,255)" data-channels="12" d="M60.0085563,33 L58.9776059,33.1067806 L57.9876702,33.4338107 L57.0116607,33.9870749 L55.9982209,35.0143978 L55.4031548,35.9910879 L55.0897858,36.9812137 L55,38.0118221 L55.0897858,38.9615238 L55.4031548,39.9944791 L55.9982209,40.9385484 L57.0116607,42.0026578 L57.9876702,42.547356 L58.9776059,42.9041908 L60.0085563,43 L60.9962003,42.9041908 L61.9954789,42.547356 L62.9929947,42.0026578 L64.025943,40.9385484 L64.5571366,39.9944791 L64.8679788,38.9615238 L65.0044791,38.0118221 L64.8679788,36.9812137 L64.5571366,35.9910879 L64.025943,35.0143978 C63.6345114,34.5608676 63.2901953,34.2184267 62.9929947,33.9870749 C62.6957941,33.7557231 62.3632888,33.5713017 61.9954789,33.4338107 L60.9962003,33.1067806 L60.0085563,33 Z" id="electrode35"></path>
            <path style="fill: rgb(0,0,255)" data-channels="13" d="M49.0085563,33 L47.9776059,33.1067806 L46.9876702,33.4338107 L46.0116607,33.9870749 L44.9982209,35.0143978 L44.4031548,35.9910879 L44.0897858,36.9812137 L44,38.0118221 L44.0897858,38.9615238 L44.4031548,39.9944791 L44.9982209,40.9385484 L46.0116607,42.0026578 L46.9876702,42.547356 L47.9776059,42.9041908 L49.0085563,43 L49.9962003,42.9041908 L50.9954789,42.547356 L51.9929947,42.0026578 L53.025943,40.9385484 L53.5571366,39.9944791 L53.8679788,38.9615238 L54.0044791,38.0118221 L53.8679788,36.9812137 L53.5571366,35.9910879 L53.025943,35.0143978 C52.6345114,34.5608676 52.2901953,34.2184267 51.9929947,33.9870749 C51.6957941,33.7557231 51.3632888,33.5713017 50.9954789,33.4338107 L49.9962003,33.1067806 L49.0085563,33 Z" id="electrode34"></path>
            <path style="fill: rgb(0,0,255)" data-channels="14" d="M38.0085563,33 L36.9776059,33.1067806 L35.9876702,33.4338107 L35.0116607,33.9870749 L33.9982209,35.0143978 L33.4031548,35.9910879 L33.0897858,36.9812137 L33,38.0118221 L33.0897858,38.9615238 L33.4031548,39.9944791 L33.9982209,40.9385484 L35.0116607,42.0026578 L35.9876702,42.547356 L36.9776059,42.9041908 L38.0085563,43 L38.9962003,42.9041908 L39.9954789,42.547356 L40.9929947,42.0026578 L42.025943,40.9385484 L42.5571366,39.9944791 L42.8679788,38.9615238 L43.0044791,38.0118221 L42.8679788,36.9812137 L42.5571366,35.9910879 L42.025943,35.0143978 C41.6345114,34.5608676 41.2901953,34.2184267 40.9929947,33.9870749 C40.6957941,33.7557231 40.3632888,33.5713017 39.9954789,33.4338107 L38.9962003,33.1067806 L38.0085563,33 Z" id="electrode33"></path>
            <path style="fill: rgb(0,0,255)" data-channels="15" d="M27.0085563,33 L25.9776059,33.1067806 L24.9876702,33.4338107 L24.0116607,33.9870749 L22.9982209,35.0143978 L22.4031548,35.9910879 L22.0897858,36.9812137 L22,38.0118221 L22.0897858,38.9615238 L22.4031548,39.9944791 L22.9982209,40.9385484 L24.0116607,42.0026578 L24.9876702,42.547356 L25.9776059,42.9041908 L27.0085563,43 L27.9962003,42.9041908 L28.9954789,42.547356 L29.9929947,42.0026578 L31.025943,40.9385484 L31.5571366,39.9944791 L31.8679788,38.9615238 L32.0044791,38.0118221 L31.8679788,36.9812137 L31.5571366,35.9910879 L31.025943,35.0143978 C30.6345114,34.5608676 30.2901953,34.2184267 29.9929947,33.9870749 C29.6957941,33.7557231 29.3632888,33.5713017 28.9954789,33.4338107 L27.9962003,33.1067806 L27.0085563,33 Z" id="electrode32"></path>
            <path style="fill: rgb(0,0,255)" data-channels="16" d="M16.0085563,33 L14.9776059,33.1067806 L13.9876702,33.4338107 L13.0116607,33.9870749 L11.9982209,35.0143978 L11.4031548,35.9910879 L11.0897858,36.9812137 L11,38.0118221 L11.0897858,38.9615238 L11.4031548,39.9944791 L11.9982209,40.9385484 L13.0116607,42.0026578 L13.9876702,42.547356 L14.9776059,42.9041908 L16.0085563,43 L16.9962003,42.9041908 L17.9954789,42.547356 L18.9929947,42.0026578 L20.025943,40.9385484 L20.5571366,39.9944791 L20.8679788,38.9615238 L21.0044791,38.0118221 L20.8679788,36.9812137 L20.5571366,35.9910879 L20.025943,35.0143978 C19.6345114,34.5608676 19.2901953,34.2184267 18.9929947,33.9870749 C18.6957941,33.7557231 18.3632888,33.5713017 17.9954789,33.4338107 L16.9962003,33.1067806 L16.0085563,33 Z" id="electrode31"></path>
            <path style="fill: rgb(0,0,255)" data-channels="17" d="M5.00855631,33 L3.9776059,33.1067806 L2.98767021,33.4338107 L2.01166073,33.9870749 L0.998220897,35.0143978 L0.40315479,35.9910879 L0.0897858212,36.9812137 L0,38.0118221 L0.0897858212,38.9615238 L0.40315479,39.9944791 L0.998220897,40.9385484 L2.01166073,42.0026578 L2.98767021,42.547356 L3.9776059,42.9041908 L5.00855631,43 L5.99620034,42.9041908 L6.99547893,42.547356 L7.9929947,42.0026578 L9.02594297,40.9385484 L9.55713657,39.9944791 L9.86797884,38.9615238 L10.0044791,38.0118221 L9.86797884,36.9812137 L9.55713657,35.9910879 L9.02594297,35.0143978 C8.63451143,34.5608676 8.29019535,34.2184267 7.9929947,33.9870749 C7.69579405,33.7557231 7.3632888,33.5713017 6.99547893,33.4338107 L5.99620034,33.1067806 L5.00855631,33 Z" id="electrode30"></path>
            <path style="fill: rgb(0,0,255)" data-channels="18" d="M60.0085563,22 L58.9776059,22.1067806 L57.9876702,22.4338107 L57.0116607,22.9870749 L55.9982209,24.0143978 L55.4031548,24.9910879 L55.0897858,25.9812137 L55,27.0118221 L55.0897858,27.9615238 L55.4031548,28.9944791 L55.9982209,29.9385484 L57.0116607,31.0026578 L57.9876702,31.547356 L58.9776059,31.9041908 L60.0085563,32 L60.9962003,31.9041908 L61.9954789,31.547356 L62.9929947,31.0026578 L64.025943,29.9385484 L64.5571366,28.9944791 L64.8679788,27.9615238 L65.0044791,27.0118221 L64.8679788,25.9812137 L64.5571366,24.9910879 L64.025943,24.0143978 C63.6345114,23.5608676 63.2901953,23.2184267 62.9929947,22.9870749 C62.6957941,22.7557231 62.3632888,22.5713017 61.9954789,22.4338107 L60.9962003,22.1067806 L60.0085563,22 Z" id="electrode25"></path>
            <path style="fill: rgb(0,0,255)" data-channels="19" d="M49.0085563,22 L47.9776059,22.1067806 L46.9876702,22.4338107 L46.0116607,22.9870749 L44.9982209,24.0143978 L44.4031548,24.9910879 L44.0897858,25.9812137 L44,27.0118221 L44.0897858,27.9615238 L44.4031548,28.9944791 L44.9982209,29.9385484 L46.0116607,31.0026578 L46.9876702,31.547356 L47.9776059,31.9041908 L49.0085563,32 L49.9962003,31.9041908 L50.9954789,31.547356 L51.9929947,31.0026578 L53.025943,29.9385484 L53.5571366,28.9944791 L53.8679788,27.9615238 L54.0044791,27.0118221 L53.8679788,25.9812137 L53.5571366,24.9910879 L53.025943,24.0143978 C52.6345114,23.5608676 52.2901953,23.2184267 51.9929947,22.9870749 C51.6957941,22.7557231 51.3632888,22.5713017 50.9954789,22.4338107 L49.9962003,22.1067806 L49.0085563,22 Z" id="electrode24"></path>
            <path style="fill: rgb(0,0,255)" data-channels="20" d="M38.0085563,22 L36.9776059,22.1067806 L35.9876702,22.4338107 L35.0116607,22.9870749 L33.9982209,24.0143978 L33.4031548,24.9910879 L33.0897858,25.9812137 L33,27.0118221 L33.0897858,27.9615238 L33.4031548,28.9944791 L33.9982209,29.9385484 L35.0116607,31.0026578 L35.9876702,31.547356 L36.9776059,31.9041908 L38.0085563,32 L38.9962003,31.9041908 L39.9954789,31.547356 L40.9929947,31.0026578 L42.025943,29.9385484 L42.5571366,28.9944791 L42.8679788,27.9615238 L43.0044791,27.0118221 L42.8679788,25.9812137 L42.5571366,24.9910879 L42.025943,24.0143978 C41.6345114,23.5608676 41.2901953,23.2184267 40.9929947,22.9870749 C40.6957941,22.7557231 40.3632888,22.5713017 39.9954789,22.4338107 L38.9962003,22.1067806 L38.0085563,22 Z" id="electrode23"></path>
            <path style="fill: rgb(0,0,255)" data-channels="21" d="M27.0085563,22 L25.9776059,22.1067806 L24.9876702,22.4338107 L24.0116607,22.9870749 L22.9982209,24.0143978 L22.4031548,24.9910879 L22.0897858,25.9812137 L22,27.0118221 L22.0897858,27.9615238 L22.4031548,28.9944791 L22.9982209,29.9385484 L24.0116607,31.0026578 L24.9876702,31.547356 L25.9776059,31.9041908 L27.0085563,32 L27.9962003,31.9041908 L28.9954789,31.547356 L29.9929947,31.0026578 L31.025943,29.9385484 L31.5571366,28.9944791 L31.8679788,27.9615238 L32.0044791,27.0118221 L31.8679788,25.9812137 L31.5571366,24.9910879 L31.025943,24.0143978 C30.6345114,23.5608676 30.2901953,23.2184267 29.9929947,22.9870749 C29.6957941,22.7557231 29.3632888,22.5713017 28.9954789,22.4338107 L27.9962003,22.1067806 L27.0085563,22 Z" id="electrode22"></path>
            <path style="fill: rgb(0,0,255)" data-channels="22" d="M16.0085563,22 L14.9776059,22.1067806 L13.9876702,22.4338107 L13.0116607,22.9870749 L11.9982209,24.0143978 L11.4031548,24.9910879 L11.0897858,25.9812137 L11,27.0118221 L11.0897858,27.9615238 L11.4031548,28.9944791 L11.9982209,29.9385484 L13.0116607,31.0026578 L13.9876702,31.547356 L14.9776059,31.9041908 L16.0085563,32 L16.9962003,31.9041908 L17.9954789,31.547356 L18.9929947,31.0026578 L20.025943,29.9385484 L20.5571366,28.9944791 L20.8679788,27.9615238 L21.0044791,27.0118221 L20.8679788,25.9812137 L20.5571366,24.9910879 L20.025943,24.0143978 C19.6345114,23.5608676 19.2901953,23.2184267 18.9929947,22.9870749 C18.6957941,22.7557231 18.3632888,22.5713017 17.9954789,22.4338107 L16.9962003,22.1067806 L16.0085563,22 Z" id="electrode21"></path>
            <path style="fill: rgb(0,0,255)" data-channels="23" d="M5.00855631,22 L3.9776059,22.1067806 L2.98767021,22.4338107 L2.01166073,22.9870749 L0.998220897,24.0143978 L0.40315479,24.9910879 L0.0897858212,25.9812137 L0,27.0118221 L0.0897858212,27.9615238 L0.40315479,28.9944791 L0.998220897,29.9385484 L2.01166073,31.0026578 L2.98767021,31.547356 L3.9776059,31.9041908 L5.00855631,32 L5.99620034,31.9041908 L6.99547893,31.547356 L7.9929947,31.0026578 L9.02594297,29.9385484 L9.55713657,28.9944791 L9.86797884,27.9615238 L10.0044791,27.0118221 L9.86797884,25.9812137 L9.55713657,24.9910879 L9.02594297,24.0143978 C8.63451143,23.5608676 8.29019535,23.2184267 7.9929947,22.9870749 C7.69579405,22.7557231 7.3632888,22.5713017 6.99547893,22.4338107 L5.99620034,22.1067806 L5.00855631,22 Z" id="electrode20"></path>
            <path style="fill: rgb(0,0,255)" data-channels="24" d="M60.0085563,11 L58.9776059,11.1067806 L57.9876702,11.4338107 L57.0116607,11.9870749 L55.9982209,13.0143978 L55.4031548,13.9910879 L55.0897858,14.9812137 L55,16.0118221 L55.0897858,16.9615238 L55.4031548,17.9944791 L55.9982209,18.9385484 L57.0116607,20.0026578 L57.9876702,20.547356 L58.9776059,20.9041908 L60.0085563,21 L60.9962003,20.9041908 L61.9954789,20.547356 L62.9929947,20.0026578 L64.025943,18.9385484 L64.5571366,17.9944791 L64.8679788,16.9615238 L65.0044791,16.0118221 L64.8679788,14.9812137 L64.5571366,13.9910879 L64.025943,13.0143978 C63.6345114,12.5608676 63.2901953,12.2184267 62.9929947,11.9870749 C62.6957941,11.7557231 62.3632888,11.5713017 61.9954789,11.4338107 L60.9962003,11.1067806 L60.0085563,11 Z" id="electrode15"></path>
            <path style="fill: rgb(0,0,255)" data-channels="25" d="M49.0085563,11 L47.9776059,11.1067806 L46.9876702,11.4338107 L46.0116607,11.9870749 L44.9982209,13.0143978 L44.4031548,13.9910879 L44.0897858,14.9812137 L44,16.0118221 L44.0897858,16.9615238 L44.4031548,17.9944791 L44.9982209,18.9385484 L46.0116607,20.0026578 L46.9876702,20.547356 L47.9776059,20.9041908 L49.0085563,21 L49.9962003,20.9041908 L50.9954789,20.547356 L51.9929947,20.0026578 L53.025943,18.9385484 L53.5571366,17.9944791 L53.8679788,16.9615238 L54.0044791,16.0118221 L53.8679788,14.9812137 L53.5571366,13.9910879 L53.025943,13.0143978 C52.6345114,12.5608676 52.2901953,12.2184267 51.9929947,11.9870749 C51.6957941,11.7557231 51.3632888,11.5713017 50.9954789,11.4338107 L49.9962003,11.1067806 L49.0085563,11 Z" id="electrode14"></path>
            <path style="fill: rgb(0,0,255)" data-channels="26" d="M38.0085563,11 L36.9776059,11.1067806 L35.9876702,11.4338107 L35.0116607,11.9870749 L33.9982209,13.0143978 L33.4031548,13.9910879 L33.0897858,14.9812137 L33,16.0118221 L33.0897858,16.9615238 L33.4031548,17.9944791 L33.9982209,18.9385484 L35.0116607,20.0026578 L35.9876702,20.547356 L36.9776059,20.9041908 L38.0085563,21 L38.9962003,20.9041908 L39.9954789,20.547356 L40.9929947,20.0026578 L42.025943,18.9385484 L42.5571366,17.9944791 L42.8679788,16.9615238 L43.0044791,16.0118221 L42.8679788,14.9812137 L42.5571366,13.9910879 L42.025943,13.0143978 C41.6345114,12.5608676 41.2901953,12.2184267 40.9929947,11.9870749 C40.6957941,11.7557231 40.3632888,11.5713017 39.9954789,11.4338107 L38.9962003,11.1067806 L38.0085563,11 Z" id="electrode13"></path>
            <path style="fill: rgb(0,0,255)" data-channels="27" d="M27.0085563,11 L25.9776059,11.1067806 L24.9876702,11.4338107 L24.0116607,11.9870749 L22.9982209,13.0143978 L22.4031548,13.9910879 L22.0897858,14.9812137 L22,16.0118221 L22.0897858,16.9615238 L22.4031548,17.9944791 L22.9982209,18.9385484 L24.0116607,20.0026578 L24.9876702,20.547356 L25.9776059,20.9041908 L27.0085563,21 L27.9962003,20.9041908 L28.9954789,20.547356 L29.9929947,20.0026578 L31.025943,18.9385484 L31.5571366,17.9944791 L31.8679788,16.9615238 L32.0044791,16.0118221 L31.8679788,14.9812137 L31.5571366,13.9910879 L31.025943,13.0143978 C30.6345114,12.5608676 30.2901953,12.2184267 29.9929947,11.9870749 C29.6957941,11.7557231 29.3632888,11.5713017 28.9954789,11.4338107 L27.9962003,11.1067806 L27.0085563,11 Z" id="electrode12"></path>
            <path style="fill: rgb(0,0,255)" data-channels="28" d="M16.0085563,11 L14.9776059,11.1067806 L13.9876702,11.4338107 L13.0116607,11.9870749 L11.9982209,13.0143978 L11.4031548,13.9910879 L11.0897858,14.9812137 L11,16.0118221 L11.0897858,16.9615238 L11.4031548,17.9944791 L11.9982209,18.9385484 L13.0116607,20.0026578 L13.9876702,20.547356 L14.9776059,20.9041908 L16.0085563,21 L16.9962003,20.9041908 L17.9954789,20.547356 L18.9929947,20.0026578 L20.025943,18.9385484 L20.5571366,17.9944791 L20.8679788,16.9615238 L21.0044791,16.0118221 L20.8679788,14.9812137 L20.5571366,13.9910879 L20.025943,13.0143978 C19.6345114,12.5608676 19.2901953,12.2184267 18.9929947,11.9870749 C18.6957941,11.7557231 18.3632888,11.5713017 17.9954789,11.4338107 L16.9962003,11.1067806 L16.0085563,11 Z" id="electrode11"></path>
            <path style="fill: rgb(0,0,255)" data-channels="29" d="M5.00855631,11 L3.9776059,11.1067806 L2.98767021,11.4338107 L2.01166073,11.9870749 L0.998220897,13.0143978 L0.40315479,13.9910879 L0.0897858212,14.9812137 L0,16.0118221 L0.0897858212,16.9615238 L0.40315479,17.9944791 L0.998220897,18.9385484 L2.01166073,20.0026578 L2.98767021,20.547356 L3.9776059,20.9041908 L5.00855631,21 L5.99620034,20.9041908 L6.99547893,20.547356 L7.9929947,20.0026578 L9.02594297,18.9385484 L9.55713657,17.9944791 L9.86797884,16.9615238 L10.0044791,16.0118221 L9.86797884,14.9812137 L9.55713657,13.9910879 L9.02594297,13.0143978 C8.63451143,12.5608676 8.29019535,12.2184267 7.9929947,11.9870749 C7.69579405,11.7557231 7.3632888,11.5713017 6.99547893,11.4338107 L5.99620034,11.1067806 L5.00855631,11 Z" id="electrode10"></path>
            <path style="fill: rgb(0,0,255)" data-channels="30" d="M60.0085563,0 L58.9776059,0.106780566 L57.9876702,0.433810717 L57.0116607,0.987074858 L55.9982209,2.01439778 L55.4031548,2.99108793 L55.0897858,3.98121366 L55,5.01182213 L55.0897858,5.96152379 L55.4031548,6.99447909 L55.9982209,7.93854837 L57.0116607,9.00265778 L57.9876702,9.54735601 L58.9776059,9.90419084 L60.0085563,10 L60.9962003,9.90419084 L61.9954789,9.54735601 L62.9929947,9.00265778 L64.025943,7.93854837 L64.5571366,6.99447909 L64.8679788,5.96152379 L65.0044791,5.01182213 L64.8679788,3.98121366 L64.5571366,2.99108793 L64.025943,2.01439778 C63.6345114,1.56086762 63.2901953,1.21842665 62.9929947,0.987074858 C62.6957941,0.755723066 62.3632888,0.571301685 61.9954789,0.433810717 L60.9962003,0.106780566 L60.0085563,0 Z" id="electrode05"></path>
            <path style="fill: rgb(0,0,255)" data-channels="31" d="M49.0085563,0 L47.9776059,0.106780566 L46.9876702,0.433810717 L46.0116607,0.987074858 L44.9982209,2.01439778 L44.4031548,2.99108793 L44.0897858,3.98121366 L44,5.01182213 L44.0897858,5.96152379 L44.4031548,6.99447909 L44.9982209,7.93854837 L46.0116607,9.00265778 L46.9876702,9.54735601 L47.9776059,9.90419084 L49.0085563,10 L49.9962003,9.90419084 L50.9954789,9.54735601 L51.9929947,9.00265778 L53.025943,7.93854837 L53.5571366,6.99447909 L53.8679788,5.96152379 L54.0044791,5.01182213 L53.8679788,3.98121366 L53.5571366,2.99108793 L53.025943,2.01439778 C52.6345114,1.56086762 52.2901953,1.21842665 51.9929947,0.987074858 C51.6957941,0.755723066 51.3632888,0.571301685 50.9954789,0.433810717 L49.9962003,0.106780566 L49.0085563,0 Z" id="electrode04"></path>
            <path style="fill: rgb(0,0,255)" data-channels="32" d="M38.0085563,0 L36.9776059,0.106780566 L35.9876702,0.433810717 L35.0116607,0.987074858 L33.9982209,2.01439778 L33.4031548,2.99108793 L33.0897858,3.98121366 L33,5.01182213 L33.0897858,5.96152379 L33.4031548,6.99447909 L33.9982209,7.93854837 L35.0116607,9.00265778 L35.9876702,9.54735601 L36.9776059,9.90419084 L38.0085563,10 L38.9962003,9.90419084 L39.9954789,9.54735601 L40.9929947,9.00265778 L42.025943,7.93854837 L42.5571366,6.99447909 L42.8679788,5.96152379 L43.0044791,5.01182213 L42.8679788,3.98121366 L42.5571366,2.99108793 L42.025943,2.01439778 C41.6345114,1.56086762 41.2901953,1.21842665 40.9929947,0.987074858 C40.6957941,0.755723066 40.3632888,0.571301685 39.9954789,0.433810717 L38.9962003,0.106780566 L38.0085563,0 Z" id="electrode03"></path>
            <path style="fill: rgb(0,0,255)" data-channels="33" d="M27.0085563,0 L25.9776059,0.106780566 L24.9876702,0.433810717 L24.0116607,0.987074858 L22.9982209,2.01439778 L22.4031548,2.99108793 L22.0897858,3.98121366 L22,5.01182213 L22.0897858,5.96152379 L22.4031548,6.99447909 L22.9982209,7.93854837 L24.0116607,9.00265778 L24.9876702,9.54735601 L25.9776059,9.90419084 L27.0085563,10 L27.9962003,9.90419084 L28.9954789,9.54735601 L29.9929947,9.00265778 L31.025943,7.93854837 L31.5571366,6.99447909 L31.8679788,5.96152379 L32.0044791,5.01182213 L31.8679788,3.98121366 L31.5571366,2.99108793 L31.025943,2.01439778 C30.6345114,1.56086762 30.2901953,1.21842665 29.9929947,0.987074858 C29.6957941,0.755723066 29.3632888,0.571301685 28.9954789,0.433810717 L27.9962003,0.106780566 L27.0085563,0 Z" id="electrode02"></path>
            <path style="fill: rgb(0,0,255)" data-channels="34" d="M16.0085563,0 L14.9776059,0.106780566 L13.9876702,0.433810717 L13.0116607,0.987074858 L11.9982209,2.01439778 L11.4031548,2.99108793 L11.0897858,3.98121366 L11,5.01182213 L11.0897858,5.96152379 L11.4031548,6.99447909 L11.9982209,7.93854837 L13.0116607,9.00265778 L13.9876702,9.54735601 L14.9776059,9.90419084 L16.0085563,10 L16.9962003,9.90419084 L17.9954789,9.54735601 L18.9929947,9.00265778 L20.025943,7.93854837 L20.5571366,6.99447909 L20.8679788,5.96152379 L21.0044791,5.01182213 L20.8679788,3.98121366 L20.5571366,2.99108793 L20.025943,2.01439778 C19.6345114,1.56086762 19.2901953,1.21842665 18.9929947,0.987074858 C18.6957941,0.755723066 18.3632888,0.571301685 17.9954789,0.433810717 L16.9962003,0.106780566 L16.0085563,0 Z" id="electrode01"></path>
            <path style="fill: rgb(0,0,255)" data-channels="35" d="M5.00855631,0 L3.9776059,0.106780566 L2.98767021,0.433810717 L2.01166073,0.987074858 L0.998220897,2.01439778 L0.40315479,2.99108793 L0.0897858212,3.98121366 L0,5.01182213 L0.0897858212,5.96152379 L0.40315479,6.99447909 L0.998220897,7.93854837 L2.01166073,9.00265778 L2.98767021,9.54735601 L3.9776059,9.90419084 L5.00855631,10 L5.99620034,9.90419084 L6.99547893,9.54735601 L7.9929947,9.00265778 L9.02594297,7.93854837 L9.55713657,6.99447909 L9.86797884,5.96152379 L10.0044791,5.01182213 L9.86797884,3.98121366 L9.55713657,2.99108793 L9.02594297,2.01439778 C8.63451143,1.56086762 8.29019535,1.21842665 7.9929947,0.987074858 C7.69579405,0.755723066 7.3632888,0.571301685 6.99547893,0.433810717 L5.99620034,0.106780566 L5.00855631,0 Z" id="electrode00"></path>
    </g>
</svg>
